# xmcd CD database file
#
# Track frame offsets:
#	150
#	13038
#	26192
#	40350
#	54541
#	66293
#	80924
#	94397
#	108069
#	122551
#	135962
#	149624
#	162812
#	183174
#	196542
#	217138
#	230496
#	245043
#
# Disc length: 3459 seconds
#
# Revision: 0
# Processed by: cddbd v1.5.2PL0 Copyright (c) Steve Scherf et al.
# Submitted via: CDex 1.51
#
DISCID=020d8112
DTITLE=Coleman hawkins - Jazz Ballads 6 Disk 2
DYEAR=2004
DGENRE=Jazz
TTITLE0=Dedication
TTITLE1=Midnight Sun
TTITLE2=April in Paris
TTITLE3=What is there to say
TTITLE4=Leave my heart alone
TTITLE5=Stardust
TTITLE6=Rainbow mist
TTITLE7=Drifting on a reed
TTITLE8=Indian Summer
TTITLE9=Song from '[ Moulin Rouge'
TTITLE10=How strange
TTITLE11=Phantomesque
TTITLE12=I surrender dear
TTITLE13=(It's no) Sin
TTITLE14=It's the talk of the town
TTITLE15=And so to sleep again
TTITLE16=If i could be one hour with you tonight
TTITLE17=Picasso
EXTD=YEAR: 2004
EXTT0=
EXTT1=
EXTT2=
EXTT3=
EXTT4=
EXTT5=
EXTT6=
EXTT7=
EXTT8=
EXTT9=
EXTT10=
EXTT11=
EXTT12=
EXTT13=
EXTT14=
EXTT15=
EXTT16=
EXTT17=
PLAYORDER=
